<?xml version="1.0" encoding="utf-8"?>
<!-- Generator: Adobe Illustrator 21.0.0, SVG Export Plug-In . SVG Version: 6.00 Build 0)  -->
<svg version="1.1" xmlns="http://www.w3.org/2000/svg" xmlns:xlink="http://www.w3.org/1999/xlink" x="0px" y="0px"
	 viewBox="0 0 152 68.5" style="enable-background:new 0 0 152 68.5;" xml:space="preserve">
<style type="text/css">
	.st0{fill:#E93F81;}
	.st1{fill:#E63D7F;}
	.st2{fill:#FAE9EB;}
	.st3{fill:#E84581;}
	.st4{fill:#E74381;}
	.st5{fill:#ED3D83;}
	.st6{fill:#EA3B80;}
	.st7{fill:#E84982;}
	.st8{fill:#E53A7B;}
	.st9{fill:#E64782;}
	.st10{fill:#E5427F;}
	.st11{fill:#E95489;}
	.st12{fill:#EA4F87;}
	.st13{fill:#EA5187;}
	.st14{fill:#E76F95;}
	.st15{fill:#E74A82;}
	.st16{fill:#E65989;}
	.st17{fill:#FDF3F4;}
	.st18{fill:#E84C84;}
	.st19{fill:#E96090;}
	.st20{fill:#EB4B87;}
	.st21{fill:#E83E82;}
	.st22{fill:#E86C93;}
	.st23{fill:#E85C8C;}
	.st24{fill:#ED9CBE;}
	.st25{fill:#131213;}
	.st26{fill:#2D2D2E;}
	.st27{fill:#4A4A4C;}
	.st28{fill:#4F5052;}
	.st29{fill:#DFE0E1;}
	.st30{fill:#474749;}
	.st31{fill:#252526;}
	.st32{fill:#2A2A2B;}
	.st33{fill:#F3BCC7;}
	.st34{fill:#E53B7C;}
	.st35{fill:#E7417F;}
	.st36{fill:#F2B7C4;}
	.st37{fill:#F9DDE1;}
	.st38{fill:#E63F7F;}
	.st39{fill:#E74983;}
	.st40{fill:#E6417F;}
	.st41{fill:#E7407E;}
	.st42{fill:#F6D2D9;}
	.st43{fill:#E95B8C;}
	.st44{fill:#E85D8C;}
	.st45{fill:#EB6E95;}
	.st46{fill:#E75586;}
	.st47{fill:#E85488;}
	.st48{fill:#E95289;}
	.st49{fill:#EB6E99;}
	.st50{fill:#F6D3D8;}
	.st51{fill:#EC8DA5;}
	.st52{fill:#F9E2E5;}
	.st53{fill:#E87595;}
	.st54{fill:#FAE3E6;}
	.st55{fill:#F8DADF;}
	.st56{fill:none;stroke:#000000;stroke-width:1.0977;stroke-miterlimit:10;}
	.st57{fill:none;stroke:#000000;stroke-width:1.1741;stroke-miterlimit:10;}
	.st58{stroke:#000000;stroke-width:0.7827;stroke-miterlimit:10;}
	.st59{fill:none;stroke:#000000;stroke-width:2;stroke-miterlimit:10;}
	.st60{fill:#121213;}
	.st61{fill:#262526;}
	.st62{fill:#353436;}
	.st63{fill:#141414;}
	.st64{fill:#414142;}
	.st65{fill:#48484A;}
	.st66{fill:#2D2C2D;}
	.st67{fill:#4B483D;}
	.st68{fill:#B4B2B2;}
	.st69{fill:#6E6A5E;}
	.st70{fill:#939090;}
	.st71{fill:#B4B1B1;}
	.st72{fill:#696457;}
	.st73{fill:#4A473E;}
	.st74{fill:#48453D;}
	.st75{fill:#444137;}
	.st76{fill:#565244;}
	.st77{fill:#4F4C4B;}
	.st78{fill:#45423C;}
	.st79{fill:#13120D;}
	.st80{fill:#3C3A37;}
	.st81{fill:#54514B;}
	.st82{fill:#E7DC97;}
	.st83{fill:#575346;}
	.st84{fill:#444139;}
	.st85{fill:#26251D;}
	.st86{fill:#706B5C;}
	.st87{fill:#0C0C0A;}
	.st88{fill:#353229;}
	.st89{fill:#373533;}
	.st90{fill:#3E3B2D;}
	.st91{fill:#0C0D0B;}
	.st92{fill:#363433;}
	.st93{fill:#39362F;}
	.st94{fill:#36322A;}
	.st95{fill:#EFE9C8;}
	.st96{fill:#F7E293;}
	.st97{fill:#020201;}
	.st98{fill:#E1D691;}
	.st99{fill:#DCC977;}
	.st100{fill:#FFFFFF;stroke:#000000;stroke-width:1.5671;stroke-miterlimit:10;}
	.st101{fill:#419E98;}
</style>
<g id="Layer_1">
	<g>
		<g>
			<path class="st0" d="M-259.5,294.5c1.1-0.8,1-2.2,1.5-3.3c3.6-9,14-15,23.9-13.7c11,1.4,18.7,8.9,20,19.1
				c0.5,3.7-0.6,7.2-2.2,10.5c-4.6,9.8-11.7,17.9-18.5,26.2c-1.6,1.9-2.3,0.3-3.1-0.6c-8.2-9.2-16.6-18.3-21-30.2
				c-0.1-0.2-0.4-0.3-0.6-0.4C-259.5,299.5-259.5,297-259.5,294.5z M-236.6,279.5c-12.9-0.5-26.9,13.1-17.5,28.8
				c4.7,7.9,10.5,14.9,16.5,21.7c0.9,1,1.6,1.5,2.7,0.2c6.5-7.9,13.2-15.7,17.3-25.2c1.3-3.1,2-6.4,1.2-9.9
				C-218.5,285.8-226.7,279.5-236.6,279.5z"/>
			<path class="st1" d="M-236.9,311.1c-7.7-0.1-13.6-5.8-13.6-13c0.1-7.1,6.2-12.7,13.9-12.6c7.6,0.1,13.8,6,13.7,13
				C-223,305.5-229.2,311.1-236.9,311.1z M-236.8,309c6.5,0,11.6-4.6,11.7-10.6c0.1-6-5.2-10.9-11.8-10.9c-6.5,0-11.5,4.7-11.5,10.8
				C-248.3,304.3-243.2,309-236.8,309z"/>
		</g>
	</g>
	<g>
		<g>
			<path class="st2" d="M-425.4,186.3c0-0.2,0-0.4,0-0.6c1.5,0,3,0,4.5,0c0,0.3,0,0.5,0,0.8C-422.4,186.4-423.9,186.4-425.4,186.3z"
				/>
			<path class="st3" d="M-440.5,221c-1.3-1.8-0.8-3.5,0.4-5.1c3.3-4.5,2.8-7.3-1.5-10.2c-3.6-2.4-4.7-6.4-2.8-10.4
				c1.9-4,5.7-5.6,9.9-3.8c1.9,0.8,2.9,0.4,3.8-1.3c0.9-1.8,2.5-2.7,4.4-3.1c1.9,0,3.8,0,5.7,0c1.7,1.9,4.2,3,4.8,5.9
				c0.2,1,0.3,1.8-0.6,2.1c-1.3,0.4-1.2-0.8-1.5-1.5c-2.2-5.5-7.5-6.7-10.9-2.5c-1.5,1.8-0.9,3.8-0.5,5.7c0.2,0.9,0.8,1.8-0.2,2.2
				c-1.2,0.5-1.5-0.6-1.9-1.7c-1.1-2.8-3.2-4.6-6.2-4.4c-2,0.2-4.2,0.7-5,3.5c-0.8,2.9-0.4,5.1,1.9,7c0,0,5.7,7,5.7,7
				c1,1.1,2.3,0.7,3.5,0.7c6.6,0,13.2,0,19.7,0c0,0.6,0,1.1-0.1,1.7c-0.2-0.1-0.5-0.2-0.7-0.3c-5.7-1-11.5-1.1-17.2,0
				c-0.5,0-1,0-1.5,0c-1.3-1-2.5-1.1-3.7,0.1c-1.8,3.9-0.4,8-0.8,12C-436.9,222.8-436.6,219.3-440.5,221z"/>
			<path class="st4" d="M-440.5,221c3.9-1.7,3.6,1.8,4.6,3.7c0.3,0.6,0.5,1.1,0.8,1.7c2.6,5.3,7.6,8.5,12.4,8
				c5.1-0.5,9.3-4.5,11-10.3c0.3-0.9,0-2.1,1.2-2.6c0.1,0.7,0.3,1.4,1.1,1.8c-0.5,4.9-2.9,8.6-7,11.2c-0.8,0.5-1.8,0.9-1.4,2.2
				c0,0.3,0,0.5,0,0.8c-1.7,0-3.5,0-5.2,0c-1.2-2.4-2.5-2.4-3.7,0c-0.9,0-1.8,0.1-2.3-0.9c0.1-1.3-1-1.6-1.8-2.1
				c-2.8-1.8-4.7-4.2-6.1-7.2C-438,225.1-439.3,223.1-440.5,221z"/>
			<path class="st5" d="M-394.6,250.9c-0.2,1.4-1.4,1.2-2.3,1.2c-18,0-36,0-54.1,0c-0.4,0-0.9-0.3-1.3-0.5c1-1.1,2.3-0.7,3.5-0.7
				c4.3,0,8.7,0,13,0c1.6,1.7,3.1-0.5,4.7-0.1c0.7-0.2,1.3-0.5,2-0.7c1.1,1.3,2.5,0.8,3.8,0.8C-415.1,251-404.8,250.9-394.6,250.9z"
				/>
			<path class="st6" d="M-431.1,250.8c-1.6-0.4-3.1,1.7-4.7,0.1c0-0.4-0.1-0.7-0.1-1.1c0.5-0.6,1.1-1.3,1.6-1.9
				c1.2-1.2,1.1-2.5,0.1-3.8c-0.1-0.5-0.1-1-0.2-1.5c-0.1-3.9-0.8-4.3-4.3-2.6c-0.5,0.3-1,0.7-1.5,1.1c-0.3-0.4-0.7-0.7-1-1.1
				c1.4-1.6,3.2-2.3,5.2-2.8c2.1-0.1,4.2,0.7,6.2-0.6c0.2-0.1,0.4-0.2,0.7-0.2c0.5,1,1.4,0.9,2.3,0.9c1.2,0,2.5,0,3.7,0
				c1.7,0,3.5,0,5.2,0c2.3,0,4.6,0,6.9-0.1c1,0.6,1.9,1.1,2.9,1.7c0,0.5,0,1.1-0.1,1.6c-1.5-0.6-3-1.2-4.4-1.8
				c-5.2-1.6-10.5-0.4-15.7-0.7c-1.3-0.1-2.8-0.6-3.7,0.8l0.1-0.1c-1.2,3.8-2,7.6,0.5,11.2C-431.4,250.4-431.3,250.6-431.1,250.8z"
				/>
			<path class="st7" d="M-411.1,208.2c-0.6-2.1,0.6-3,2.4-3.5c2.8-0.8,4.4-2.7,4.5-5.7c0.1-3.1-1.9-4.7-4.5-5.7
				c-1-0.4-2.6-0.4-2.1-1.9c0.4-1.2,1.9-0.7,2.9-0.3c3.4,1.2,5.8,3.3,6,7.2c0.2,3.7-1.4,6.5-4.8,8.1c-0.7,0.3-1.3,0.7-2,1.1
				c-0.5,0.5-1.1,1-1.6,1.5C-410.6,208.7-410.9,208.4-411.1,208.2z"/>
			<path class="st8" d="M-411.1,208.2c0.3,0.3,0.5,0.5,0.8,0.8c0.4,1.5,0.9,3,1.3,4.5c0.2,1.5,1.3,2.4,2.4,3.3
				c0.2,1.1-0.8,2.2,0,3.4c-0.7,1.2-1.4,2.6-2.7,3.3c-0.8-0.4-1-1.1-1.1-1.8c-0.5-0.6-0.9-1.2-0.7-2.1c1.2-1.3,1.2-2.5,0-3.8
				c-0.3-0.9-0.5-1.9-0.8-2.8c0-0.6,0-1.1,0.1-1.7c0-0.3,0-0.6-0.1-0.9C-411.6,209.6-411.4,208.9-411.1,208.2z M-409.5,217.6
				c-0.1,1.6,0,2.1,0.5,2.2c0.7,0.1,0.8-0.5,0.8-0.9c0-0.5,0.1-1.3-0.8-1.3C-409.5,217.7-409.5,218.2-409.5,217.6z"/>
			<path class="st9" d="M-441.2,240.2c0.3,0.4,0.7,0.7,1,1.1c-1.6,2.4-4,5-2.5,7.8c1.3,2.3,4.4,0.8,6.8,0.8c0,0.4,0.1,0.7,0.1,1.1
				c-4.3,0-8.7,0-13,0c-1.2,0-2.5-0.4-3.5,0.7c-1-2.3,1.1-1.6,1.8-1.6c3.4,0.3,5.5-0.4,5.8-4.5
				C-444.6,243.5-443.2,241.4-441.2,240.2z"/>
			<path class="st10" d="M-394.6,250.9c-10.2,0-20.4,0-30.7,0c-1.3,0-2.8,0.5-3.8-0.8c0.5-0.6,0.7-1.5,1.9-1.2
				c7.6,2.1,15.2,1.2,22.9,0.5c0.6,0,1.2-0.2,1.5-0.8c1.3,1.1,2.8,1.5,4.6,1.5C-397,250.1-395.5,249.4-394.6,250.9z"/>
			<path class="st4" d="M-402.8,248.6c-0.3,0.6-0.9,0.8-1.5,0.8c-0.2-3.4-1.4-6.4-3.8-8.8c0-0.5,0-1.1,0.1-1.6
				C-404.3,241.1-402.7,244.4-402.8,248.6z"/>
			<path class="st11" d="M-411.9,210.3c0,0.3,0,0.6,0.1,0.9c-6.6,0-13.2,0-19.7,0c-1.2,0-2.5,0.4-3.5-0.7
				C-427.4,210.4-419.6,210.4-411.9,210.3z"/>
			<path class="st12" d="M-409,213.4c-0.4-1.5-0.9-3-1.3-4.5c0.5-0.5,1.1-1,1.6-1.5C-408.8,209.4-408.9,211.4-409,213.4z"/>
			<path class="st13" d="M-411,237.4c-2.3,0-4.6,0-6.9,0.1c0-0.3,0-0.5,0-0.8C-415.5,236.9-413.1,236.1-411,237.4z"/>
			<path class="st13" d="M-429.9,236.8c-2,1.3-4.1,0.5-6.2,0.6C-434.1,236.3-432,236.8-429.9,236.8z"/>
			<path class="st14" d="M-420.6,187c-1.9,0-3.8,0-5.7,0c0.3-0.2,0.6-0.5,1-0.7c1.5,0,3,0.1,4.5,0.1
				C-420.8,186.7-420.7,186.8-420.6,187z"/>
			<path class="st15" d="M-406.6,220c-0.8-1.1,0.3-2.2,0-3.4C-405.5,217.8-405.6,218.9-406.6,220z"/>
			<path class="st11" d="M-412.6,212.6c-5.7,0-11.5,0-17.2,0C-424.1,211.5-418.4,211.5-412.6,212.6z"/>
			<path class="st11" d="M-431.4,212.6c-1.2,0-2.5,0-3.7,0.1C-433.9,211.6-432.6,211.6-431.4,212.6z"/>
			<path class="st16" d="M-423.1,237.4c-1.2,0-2.5,0-3.7,0C-425.6,235.1-424.3,235.1-423.1,237.4z"/>
			<path class="st17" d="M-436,249.8c-2.3,0-5.5,1.5-6.8-0.8c-1.5-2.8,0.9-5.4,2.5-7.8c0.5-0.4,0.9-0.8,1.5-1.1
				c3.5-1.7,4.2-1.3,4.3,2.6c0,0.5,0.1,1,0.2,1.5c0,1.3,0,2.5-0.1,3.8C-434.9,248.6-435.4,249.2-436,249.8z"/>
			<path class="st13" d="M-412.6,238.9c-6.5,0.1-13,0.1-19.5,0.2c1-1.4,2.5-0.9,3.7-0.8C-423.1,238.5-417.8,237.3-412.6,238.9z"/>
			<path class="st18" d="M-432,239c-0.2,3.8-0.9,7.5,0.5,11.2C-434,246.5-433.1,242.8-432,239z"/>
			<path class="st9" d="M-434.4,247.9c0-1.3,0-2.5,0.1-3.8C-433.3,245.5-433.2,246.7-434.4,247.9z"/>
			<path class="st12" d="M-409.5,217.6c0,0.6,0,0,0.6,0c0.9,0,0.8,0.7,0.8,1.3c0,0.4-0.1,1-0.8,0.9
				C-409.5,219.7-409.6,219.2-409.5,217.6z"/>
			<path class="st12" d="M-411.1,219.4c0-1.3,0-2.5,0-3.8C-410,216.9-410,218.2-411.1,219.4z"/>
			<path class="st19" d="M-420.9,219.3c-0.1,1.8-0.1,3.5-1.9,4.3c-1,0.5-1.9,0-2.8-0.6c-0.5-0.4-0.8-1-0.6-1.6
				c0.1-0.7,0.5-1.2,1.3-0.9c1.5,0.7,1.6-0.2,1.7-1.4c0.1-1-0.5-2.7,1.3-2.5C-420.3,216.9-421.1,218.5-420.9,219.3z"/>
			<path class="st20" d="M-421.6,228.5c1.2-0.2,2.2-1.4,3.5-0.5c-2.3,3.1-8.1,3.7-11,1.3c-0.4-0.4-0.8-0.8-0.6-1.2
				c0.2-0.3,0.9-0.6,1.2-0.5c1,0.4,2,1,3.1,0.9C-424.1,229.5-422.8,229.5-421.6,228.5z"/>
			<path class="st21" d="M-431.1,216.4c0.5-0.1,1,0.1,1,0.7c0.1,0.6-0.4,0.9-0.9,0.9c-0.3,0-0.8-0.3-0.8-0.5
				C-431.9,216.9-431.6,216.5-431.1,216.4z"/>
			<path class="st22" d="M-416.4,218c-0.5-0.1-0.9-0.2-1-0.8c-0.1-0.6,0.4-0.9,0.8-0.9c0.5-0.1,0.9,0.2,1,0.8
				C-415.6,217.7-415.9,217.9-416.4,218z"/>
			<path class="st23" d="M-421.6,228.5c-1.2,1.1-2.5,1-3.7,0C-424.1,228.5-422.8,228.5-421.6,228.5z"/>
			<path class="st24" d="M-428,245.1c0.8,0.1,1.1,0.4,1.1,0.9c0,0.5-0.4,1-0.9,0.9c-0.4-0.1-0.9-0.6-0.9-0.9
				C-428.7,245.7-428.2,245.3-428,245.1z"/>
		</g>
	</g>
	<g>
		<g>
			<path class="st25" d="M-516.8,21.2c-1.2-1.6-3.8-2.4-3.2-5.1c0.7-3.5,2.9-6.2,4.7-9.2c0.3-0.5,0.9-0.4,1.3-0.1
				c2.4,2.5,5,4.8,5.1,8.6c0,1.4-0.5,3-1.6,3.4c-3.2,1.3-2.4,3.8-2.4,6.2c0.2,6,0.8,12-0.3,17.9c-0.3,1.4-0.6,2.8-1.8,4.5
				c-1.5-5.3-2.2-10.2-2-15.3c0.7-1.9-0.5-4.2,0.9-6c4.1,0.3,1.8-2.8,2-4.2c0.3-1.8-0.9-1.9-2.1-0.8
				C-516.3,21.2-516.6,21.2-516.8,21.2z M-516.9,12.7c-1,1.5-1.8,2.8-1,4.5c0.1,0.1,0.5,0.3,0.6,0.2c1.1-1.1,0.5-2.6,0.7-3.9
				C-516.6,13.4-516.7,13.1-516.9,12.7z"/>
			<path class="st26" d="M-552.8,16.9c3.9-6.1,9.6-9.6,16.3-11.3c3.5-0.9,7.2-0.7,9.7,2.7c2.4,3.4,3,7,1.3,10.9
				c-2.6,5.8-2.7,5.8,2.4,9.4c3.3,2.4,3.3,5.4,0.3,8.1c-6.1,5.5-13,8.8-21.3,8.4c-2.1-0.1-4-0.6-5.8-1.7c0.3-0.2,0.6-0.4,0.8-0.7
				c9,2.8,16.8,0.1,23.6-5.6c5-4.1,4.5-6.8-1.6-9.4c-3-1.3-3-3-1.9-5.4c0.6-1.2,1.3-2.3,1.9-3.5c1.6-3.5,1.2-6.7-1.1-9.8
				c-2.3-2.9-5.4-2.8-8.5-2c-6.4,1.5-11.2,5.7-15.4,10.5C-552.4,17.4-552.6,17.2-552.8,16.9z"/>
			<path class="st27" d="M-549,42.8c-0.3,0.2-0.6,0.4-0.8,0.7c-9.7-5.1-11.8-18.1-4.2-26c0.3-0.3,0.9-0.4,1.3-0.5
				c0.2,0.2,0.4,0.5,0.6,0.7c-0.5,1.8-2.3,2.4-3.1,4.1C-559.3,31-557.6,37.2-549,42.8z"/>
			<path class="st28" d="M-516,26.3c-1.4,1.8-0.2,4.1-0.9,6c-0.8-3.7-0.4-7.3,0.1-11c0.2,0,0.4,0,0.7,0
				C-516.1,22.9-516,24.6-516,26.3z"/>
			<path class="st29" d="M-516.9,12.7c0.2,0.5,0.4,0.7,0.3,0.9c-0.2,1.3,0.4,2.8-0.7,3.9c-0.1,0.1-0.5-0.1-0.6-0.2
				C-518.7,15.5-517.9,14.2-516.9,12.7z"/>
			<path class="st30" d="M-530.8,14.4c-0.3,2.8-2.8,3.5-5.1,3.8c-2,0.3-3.3-1.2-3.1-3.1c0.3-2.4,1.6-4.5,4.3-4.4
				C-532.8,10.8-530.7,11.6-530.8,14.4z M-532.7,14.2c-0.5-0.9-1-1.9-2.4-1.8c-1.7,0.1-2.1,1.5-2.4,2.7c-0.2,1.1,0.5,1.8,1.7,1.7
				C-534.1,16.6-533.4,15.4-532.7,14.2z"/>
			<path class="st31" d="M-545.6,18.5c1.8,0.3,3.1,1.6,2.8,3.1c-0.3,1.3-0.6,3.5-2.9,3.4c-1.9-0.1-2.7-1.3-2.7-3.1
				C-548.5,20-547.6,18.7-545.6,18.5z"/>
			<path class="st32" d="M-541.8,35.1c1.4,0.1,2.6,1,2.6,2.6c0,2-1.3,2.9-3.3,3c-1.6,0.1-2.6-0.7-2.6-2.3
				C-545,36.5-544,35.3-541.8,35.1z"/>
			<path class="st31" d="M-546.3,29.9c-0.1,2.3-1.2,3.6-3.3,3.8c-1.5,0.1-2.6-0.8-2.4-2.4c0.2-1.9,1.1-3.5,3.2-3.6
				C-547.2,27.6-546.6,28.8-546.3,29.9z"/>
		</g>
	</g>
	<g>
		<g>
			<path class="st33" d="M-365.2,316.8l-0.3,0l-0.3-0.1c0-2.9,0-5.7,0-8.6c0.2,0,0.4,0,0.6,0C-365.2,311-365.2,313.9-365.2,316.8z"
				/>
			<path class="st34" d="M-310.9,310.1c0-2.2-0.1-4.3,0-6.5c0.1-2.9,0-5.5-2.8-7.6c-2-1.5-1.4-4.1-0.5-6c1.6-3.5,3.6-6.9,5.4-10.3
				c0.8-1.5,1.8-1.3,2.9-0.2c2.9,2.8,4.7,6.2,5.6,10c0.6,2.7-0.3,5.2-2.6,6.8c-1.9,1.3-2,2.9-1.9,4.8c0.5,7.9,0.8,15.8,0.5,23.7
				c-0.1,3.4-1.3,6.4-2.2,9.6c-0.2,0.7-0.3,1.6-1.2,1.6c-1.1,0-1-1.1-1.1-1.9C-310.4,326.3-311,318.3-310.9,310.1z M-306.5,303
				C-306.5,303-306.5,303-306.5,303c0-0.7,0-1.4,0-2.1c0-0.8,0.1-1.8-1.1-1.8c-1.1,0-1.6,0.7-1.6,1.8c0,1.5,0,3.1,0,4.6
				c0,0.8,0.5,1.3,1.4,1.3c0.9,0,1.3-0.5,1.4-1.3C-306.4,304.7-306.5,303.8-306.5,303z M-309.8,287.1c-1.9,1.6-2.4,3.4-2.4,5.5
				c0,0.7,0.2,1.6,1,1.7c0.7,0,0.8-0.8,0.9-1.4C-310.2,290.9-310,289-309.8,287.1z"/>
			<path class="st35" d="M-365.2,316.8c0-2.9,0-5.8,0.1-8.7c1.5-8.1,5.8-14.7,11.4-20.5c5.4-5.5,11.7-9.2,19.3-10.4c1.7,0,3.4,0,5,0
				c7.2,0.6,11,12.7,8.2,18.2c-1.1,2.3-1.9,4.7-3.4,6.9c-1.4,2.1-1.1,3.7,1.6,4.7c8.8,3.4,8.7,12.1,2,17.3c-5.8,4.5-12,7.6-19.3,8.8
				c-8.9,1.5-17.6-2.2-22.6-9.7C-364,321.3-364.1,318.8-365.2,316.8z M-363.4,312.1c-0.7,11.1,7.6,18.6,16.2,19.4
				c10.5,0.9,19.2-3.3,26.6-10.3c4.7-4.5,3.5-9.6-2.3-12.3c-0.7-0.3-1.3-0.5-2-0.8c-3.1-1.4-3.7-3.1-2-6.1c1.1-2.1,2.3-4.1,3.3-6.2
				c2.3-4.9,1.5-9.6-1.7-13.5c-2.9-3.5-7.2-3.5-11.4-2.6c-4,0.9-7.2,3.1-10.5,5.4c-4.8,3.3-8.5,7.7-11.7,12.4
				C-361.9,302-363.7,307-363.4,312.1z"/>
			<path class="st36" d="M-329.3,277.2c-1.7,0-3.4,0-5,0C-332.7,275.4-331,275.4-329.3,277.2z"/>
			<path class="st37" d="M-309.8,287.1c-0.2,1.9-0.3,3.8-0.5,5.8c-0.1,0.6-0.2,1.4-0.9,1.4c-0.9,0-1-0.9-1-1.7
				C-312.3,290.5-311.7,288.6-309.8,287.1z"/>
			<path class="st38" d="M-344.2,299.9c0,2.8-2.3,5.4-4.7,5c-2.4-0.4-3.4-2.3-3.4-4.7c0.1-3.2,1.5-4.7,4.4-4.6
				C-345.3,295.8-344.2,297.1-344.2,299.9z"/>
			<path class="st39" d="M-329.3,289.3c0.1,3.3-2.6,6-6,6c-2.8,0-4.3-1.4-4.4-4c-0.1-3.1,2.9-6.4,5.9-6.4
				C-331.4,284.8-329.3,286.8-329.3,289.3z M-334,286.9c-1.9,0.4-3.1,1.7-3.3,3.9c-0.1,1.3,0.4,2.5,2,2.5c2.5,0,3.6-1.6,3.9-3.8
				C-331.1,287.8-332.2,287.1-334,286.9z"/>
			<path class="st40" d="M-352.1,308.6c1.8,0.1,2.9,1.2,3,3.5c0.1,2.7-1.9,5.1-4.3,5.1c-2.4,0-3.5-1.4-3.6-3.7
				C-357.1,310.8-355.1,308.6-352.1,308.6z"/>
			<path class="st40" d="M-347.2,323.9c0.1-2.3,2.4-5.5,3.9-5.1c2.1,0.5,3.1,2.3,3.4,4.2c0.2,1.8-2.5,4.4-4.4,4.3
				C-346.7,327.2-346.8,325.3-347.2,323.9z"/>
		</g>
	</g>
	<g>
		<g>
			<path class="st41" d="M-424,291.5c-0.3-1.5,1.4-1.7,1.9-2.9c0.8-2,1.9-0.1,2.7,0.4c2.5,1.4,6.4,1.1,8.4-0.7c1-0.9,2-1.6,0.5-3
				c-1.4-1.4,0.3-2.2,1.1-2.7c2.5-1.7,2-3-0.2-4.5c-0.9-0.6-1.7-1.3-2.4-2.1c-0.7-0.6-1.6-1.3-0.6-2.4c0.9-0.9,1.8-1.7,3-0.7
				c1.3,1.1,2.7,2.2,3.8,3.4c1.2,1.2,2.1,1.2,3.2,0.1c1.3-1.3,2.9-2.2,3.8-3.9c1.1-2.1,3.1-2.5,5.3-2c2,0.5,2.9,2.1,3.1,4
				c0.1,0.6,0.3,1.3,0.2,1.9c-0.6,3.4,0.8,5.6,3.8,7.2c2.3,1.1,2.8,2.6,0.3,4.5c-3.4,2.5-6.7,5.3-10,8c-1.4,1.1-2.5,1.1-3.6-0.3
				c-1.5-2.1-3.6-2.4-6-2.3c-3.3,0.1-6.6,0-10,0c-1.3,0-2.6,0-3.7,0.8c-0.9,0.6-1.4,1.8-3,0.8C-423.6,294.1-423.9,293-424,291.5z
				 M-389.6,284.1c-0.3-0.4-0.4-0.7-0.6-0.9c-1.8-1.5-3.6-3-5.4-4.5c-0.9-0.7-1.5-0.3-2.2,0.3c-2.4,2.1-4.8,4.2-7.2,6.3
				c-0.8,0.7-1.5,1.4-0.4,2.3c1.9,1.7,3.6,4,5.9,4.8c1.7,0.5,3.1-2.2,4.6-3.5c1.4-1.1,2.8-2.4,4.1-3.6
				C-390.4,285-390.1,284.5-389.6,284.1z M-391.9,279.3c-0.1-2.3-0.1-3.9-0.4-5.6c-0.2-1.2-1.2-1.7-2.4-1.7c-1.2,0-2.1,0.3-2.6,1.4
				c-0.6,1.3,0.2,2,1.1,2.7C-394.9,277-393.7,278-391.9,279.3z M-398.1,294.2c0.3,0.3,0.5,0.5,0.8,0.8c3.5-3,7.1-6.1,10.6-9.1
				C-391.6,287.5-394.5,291.3-398.1,294.2z M-415.8,291.1c0,0.3,0,0.5-0.1,0.8c3.5,0,6.9,0,10.4,0
				C-408.9,290.6-412.3,290.8-415.8,291.1z M-401.3,279.7c1-0.8,2.3-1.6,2.8-2.8c0.2-0.5-0.5-1-1-0.7c-1.2,0.6-2.4,1.3-2.7,2.8
				C-402.3,279.4-401.8,279.7-401.3,279.7z M-404.4,282c-2.2-0.8-3,0.8-4,1.9c-0.3,0.3-0.3,0.9,0.2,1.1c1.6,0.4,2-1.1,3-1.8
				C-404.9,282.9-404.7,282.5-404.4,282z M-408.8,275.8c0.9,1.3,1.8,2.7,3.5,3.2C-406.2,277.5-407.2,276.3-408.8,275.8z"/>
			<path class="st35" d="M-448.5,334.8c1.5-1.3,2.7-1,3.7-1.1c4.1,0,8.1-0.1,12.2,0c1.9,0,2.7-0.7,2.6-2.6c-0.1-3.3-0.2-6.6,0-10
				c0.1-2.2-0.3-3.4-2.9-3.3c-2,0.1-3.5-1.1-4.1-3c-0.9-2.6-0.1-3.7,2.6-3.5c1.4,0.1,2.7,0.5,4.1,0.8c0.1-0.1,0.2-0.3,0.3-0.5
				c0.4-1-0.6-3,0.9-3c1.8,0,1,2,1,3.1c0.1,2.9,0,5.7,0,8.8c2.6-0.8,5-1.8,7.4-1c1,0.3,2.4,0.4,2.7,1.5c0.3,1.3-1,2-1.9,2.7
				c-1.7,1.3-3.6,1.9-5.7,1.6c-1.8-0.3-2.5,0.1-2.5,2.1c0.2,7.1-0.9,6,5.8,6.1c4.7,0.1,9.4,0,14.1,0c1,0,2.1-0.4,3.4,1
				C-419.4,334.8-433.6,334.8-448.5,334.8z M-427.5,323.2c2.3,1.5,4.2,1,6-0.1c0.4-0.3,1-0.6,0.8-1.2c-0.2-0.6-0.8-0.7-1.3-0.7
				C-424.1,320.9-425.8,321.5-427.5,323.2z M-430.5,315.5c-0.5-1.9-2.2-2.1-3.6-2.5c-0.7-0.2-1.4,0.2-1.2,1c0.4,1.8,1.9,2.4,3.6,2.5
				C-431.1,316.5-430.5,316.4-430.5,315.5z"/>
			<path class="st42" d="M-427.9,301.8c-0.5,0.2-0.9,0.5-1.4,0.7c-0.1-1.1,0.6-2.4-0.6-3.2c0-0.2,0.1-0.5,0.1-0.7
				c1.8,0.4,1.6-1.6,2.5-2.2c0.2,0.8,0.5,1.4,1.3,1.8c0,0.2,0,0.4,0,0.6C-428.5,298.6-428,300.3-427.9,301.8z"/>
			<path class="st43" d="M-428.1,295.3c0-0.3,0.1-0.6,0.1-0.9c0.2-1.3,0.8-2.2,2.1-2.5c0.3-0.1,0.7,0.1,0.8,0.3
				c0.7,1.3-1,1.6-1.1,2.7c-0.4,0.2-0.8,0.3-1.2,0.5C-427.6,295.4-427.9,295.3-428.1,295.3z"/>
			<path class="st44" d="M-427.4,295.4c0.4-0.2,0.8-0.3,1.2-0.5c0.7-0.1,1.7-0.7,1.9,0.4c0.3,1.3-0.7,2.1-1.8,2.8
				c-0.7-0.4-1.1-1-1.3-1.8C-427.3,296-427.4,295.7-427.4,295.4z"/>
			<path class="st45" d="M-427.9,303.1c1-0.1,1.1,0.5,1.1,1.2c0,0.7,0.1,1.6-0.8,1.8c-0.9,0.2-1-0.6-1-1.2
				C-428.6,304.2-428.8,303.4-427.9,303.1z"/>
			<path class="st46" d="M-427.4,295.4c0,0.3,0,0.6,0,0.9c-0.9,0.7-0.7,2.6-2.5,2.2c0-1.4-0.1-2.8,1.8-3.1
				C-427.9,295.3-427.6,295.4-427.4,295.4z"/>
			<path class="st47" d="M-427.9,301.8c-0.1-1.4-0.5-3.1,1.8-3.1C-426,300.1-425.8,301.6-427.9,301.8z"/>
			<path class="st48" d="M-430,299.2c1.3,0.9,0.5,2.1,0.6,3.2c-0.6,0.3-1.3,0.6-1.5-0.2C-431.2,301.1-430.9,300.1-430,299.2z"/>
			<path class="st49" d="M-429.4,305c0,0.7-0.2,1.3-1,1.3c-0.6,0-0.9-0.6-0.9-1.1c0-0.7,0.1-1.4,0.9-1.5
				C-429.6,303.6-429.4,304.3-429.4,305z"/>
			<path class="st50" d="M-398.1,294.2c3.7-2.9,6.6-6.7,11.4-8.3c-3.5,3-7.1,6.1-10.6,9.1C-397.6,294.7-397.9,294.5-398.1,294.2z"/>
			<path class="st51" d="M-415.8,291.1c3.5-0.3,6.9-0.5,10.4,0.8c-3.5,0-6.9,0-10.4,0C-415.8,291.6-415.8,291.4-415.8,291.1z"/>
			<path class="st52" d="M-401.3,279.7c-0.5,0-1-0.3-0.9-0.7c0.2-1.5,1.5-2.2,2.7-2.8c0.6-0.3,1.2,0.2,1,0.7
				C-399.1,278.2-400.3,278.9-401.3,279.7z"/>
			<path class="st52" d="M-404.4,282c-0.4,0.5-0.5,0.9-0.9,1.1c-1,0.7-1.4,2.2-3,1.8c-0.4-0.1-0.5-0.7-0.2-1.1
				C-407.4,282.8-406.5,281.2-404.4,282z"/>
			<path class="st53" d="M-408.8,275.8c1.6,0.5,2.6,1.8,3.5,3.2C-407,278.5-407.9,277.1-408.8,275.8z"/>
			<path class="st54" d="M-427.5,323.2c1.7-1.7,3.4-2.3,5.5-2.1c0.5,0.1,1.2,0.1,1.3,0.7c0.2,0.6-0.4,0.9-0.8,1.2
				C-423.4,324.2-425.2,324.7-427.5,323.2z"/>
			<path class="st55" d="M-430.5,315.5c0,0.9-0.6,1.1-1.3,1c-1.7-0.2-3.2-0.7-3.6-2.5c-0.2-0.8,0.5-1.2,1.2-1
				C-432.7,313.4-431,313.6-430.5,315.5z"/>
		</g>
	</g>
	<g>
		<path class="st56" d="M-565.4,280.8l24.6-15.4c0.5-0.3,1-0.3,1.5,0l24.2,15.3c0.3,0.2,0.3,0.5,0,0.7c0,0-2.6,1.3-3.4,2.7
			c-1.8,2.1-0.5,5.7,0,7c0.1,0.3-0.1,1.5-0.4,1.7l-0.8,0.2c-0.2,0-0.7-0.1-0.9-0.3l-0.4-0.8c-0.1-0.2-0.1-0.6,0-0.8l0.7-1.1
			c0-0.1,0.2-0.8,0.1-1c0-0.5,0-2.4,0-3.3c0-0.2,0-0.4-0.2-0.3c0,0-3.2,0.6-4,3.3c-0.3,1.1-0.2,3-0.3,4c0,0.2-0.2,1.1-1,1.8
			c-3.8,2.1-10.6,2.5-14.3,2.4c-14-0.3-15-3.1-15.1-3.7c0,0-0.2-0.8-0.2-0.9l0.1-2.6c-0.2-1.2-0.8-2.2-1.7-2.8l-8.4-5.3
			C-565.7,281.4-565.6,280.9-565.4,280.8z"/>
		<path class="st56" d="M-526.7,293c0.5,1.8-10.5,2.6-13.3,2.5c-10-0.6-13.6-0.8-13.5-2.4c0-1.9,9.9-2.3,13.4-2.2
			C-532.8,290.8-526.9,291.5-526.7,293z"/>
		<g>
			<path class="st56" d="M-555,284.1c1.2-4.6,9.5-5.5,15-5.9c7.2,0,14.5,3.1,14.9,5.9"/>
			<path class="st56" d="M-555,284.1c6.5-3.1,9.5-3.7,15-4.1c7.2,0,12.7,3.1,14.9,4.4"/>
		</g>
		<path class="st56" d="M-521,293.6l-0.4,8.3c0,0,1-0.5,1.1-1.1c-0.5,0,0.4,0,0.4,0s1.9-0.6,1.3-2.5
			C-519.3,297.7-517,292.9-521,293.6z"/>
	</g>
	<g>
		<path class="st57" d="M-543.4-76.8c-0.2-1.5,0.8-2.1,1.5-2.1l1,0c0.1,0,1,0.7,2.4,0.9c0.3,0.1,1.8,0.6,4.6,0.2c0,0,0.1,0,0.1,0
			c0,0,0.6-0.1,2.3-0.5c0.7-0.2,1.9-0.6,1.9-0.6l1.3,0c0.9,0.5,0.7,1.5,0.6,1.7c0,0-1.3,4.1-4.3,6.2c0.1,0,0.1,0.1,0.5,0.4
			c4.8,2.3,12.6,6.8,15.2,18c0,0,0,0.6,0.1,0.6c0.3,4.5-3.5,6.9-4.3,7.3c-0.1,0.1,0,0,0,0c-5,3.1-14.7,2.3-14.7,2.4l-3.8-0.1
			c0,0-11.2-0.3-13-7.3c-0.2-0.6-2.8-8.5,10.1-18.8c3.6-2.2,3.6-2.2,3.6-2.2S-542.8-73.6-543.4-76.8z"/>
		<g>
			<path class="st58" d="M-528.3-53.2c-0.3,1.3-2.8,2.2-5.8,2.5l0.3,1.8c-0.7,0.4-0.9-0.6-1-1.8c-0.4,0-0.8,0.1-1.2,0.1
				c0.1,0.9,0,1.7,0,2.1c-0.7,0.1-0.8-0.6-0.8-2.3c-1.6-0.1-3.2-0.7-3.4-2.1c-0.1-0.6-0.2-1.4,0.7-1.6c0.3-0.1,0.4,0.1,0.3,0.1
				c-1,0.5-0.7,1.3-0.1,1.9c0.6,0.6,1.3,0.9,2.5,1c0.1-1,0.2-3.6,0.3-4.8c-0.9-0.3-1.4-0.7-2.1-1.1c-1.5-0.9-1.4-2.5,0.4-3.4
				c0.6-0.3,1.8-0.8,2.1-0.9c-0.1-0.2,0-1.5,0.1-2.6c0-0.2,0.2-0.5,0.8-0.6c0,0-0.1,1.7-0.1,2.2c-0.1,0.5-0.1,0.7-0.1,0.9
				c0.4-0.1,0.7-0.1,1.4-0.2c0-0.5,0.1-1,0.1-1.4c0-0.3,0-0.6,0.1-0.9c0.1-0.2,0.4-0.6,0.7-0.6c0.1,0.1,0,1.4-0.1,2.4
				c0,0.2,0,0.4-0.1,0.6c1.4,0.1,2.3,0.4,2.8,0.8c0.5,0.4,0.3,1.3-0.4,1.1c0.3-0.5,0.1-0.7-0.3-0.9c-0.6-0.3-1-0.5-2.1-0.5
				c-0.1,1-0.2,1.8-0.3,2.6c-0.1,0.7-0.1,1.5-0.3,2.6c3.3,1,1.7,0.5,4.6,1.5C-528.7-54.3-528.2-53.9-528.3-53.2z M-536.2-60.9
				c-1.7,0.5-2.8,1.3-2.7,2.1c0,1.2,1.3,1.6,2.6,2.1L-536.2-60.9z M-534.7-55.6c-0.4-0.1-0.7-0.2-1.1-0.3c0,0.1-0.3,3.6-0.4,4.7
				c0.4,0,0.7,0,1.3-0.1c0-1.2,0-2.5,0.1-3.7C-534.6-55.3-534.7-55.5-534.7-55.6z M-534.2-61.2c-0.4,0-1.1,0.1-1.4,0.2
				c-0.1,1.1-0.1,4.4-0.2,4.5c0.4,0.1,0.6,0.2,1,0.2C-534.2-60.5-534.2-60.6-534.2-61.2z M-529.7-54c-1.3-0.6-2.7-1-4.2-1.6
				c-0.1,1.6-0.2,3.6-0.2,4.2c0.6-0.2,2.7-0.1,4.2-1.1C-528.8-53-528.8-53.6-529.7-54z"/>
		</g>
	</g>
	<path class="st59" d="M-535.7,89.1l-22.5,21.4c-0.5,0.5-0.7,1-0.6,1.5c0.2,0.9,0.7,1.4,1.9,1.5l3,0c0.3,0,0.6,0.1,0.6,0.7l0,14.7
		c0.2,0.9,0.5,1.5,1.7,1.6h11.3c1.2-0.2,1.6-0.3,1.8-1.8l0-10.4c0-0.7,0.4-0.8,0.8-0.8l5.5,0c0.4,0,0.8,0.3,0.8,0.7l-0.1,10.8
		c0,0.9,0.5,1.4,1.7,1.4l10.8,0c1.1,0,1.8,0,1.8-1.9l0-14.2c0-0.4-0.2-0.8,0.5-0.8l4.7,0c1.2-0.3,1.7-1.7,0.8-2.6l-21.8-21.7
		C-534.3,88-535.1,88.6-535.7,89.1z"/>
	<g>
		<g>
			<path class="st60" d="M-517.4,204.3c2.3,0.7,4.5,1.8,7,1.8c2,0,3.8,2,3.9,4.1c0,1.7,0,3.3,0,5c0,1.7-0.3,3.4,1.7,4.6
				c1.5,0.9,0.9,3.5-0.7,4.4c-1.2,0.6-1.8,1.5-2.3,2.8c-1.6,3.8-4.6,5.9-8.7,6.3c-4.3,0.4-7.6-1.3-10-4.8c-1.1-1.7-1.9-3.5-3.7-4.8
				c-1.5-1-1-3.3,0.7-4.6c0.7-0.5,1.4-5.2,0.9-5.3c-3.5-0.3-1.2-2.1-0.9-3.3c0.4-1.5,0.9-2.8,2.4-3.8c1.6-1,3.3-1.5,5-2.3
				C-520.7,204.3-519,204.3-517.4,204.3z M-512.2,212c-4.4,3.4-8.9,4.1-13.6,1.6c-0.9-0.5-1.4-0.4-1.4,0.8c0.1,3.2-0.1,6.5,0.2,9.7
				c0.4,4.4,3.8,7.6,8.4,8.1c4.5,0.5,8.5-2,9.9-6.1c0.9-2.4,0.5-4.9,0.6-7.4c0-0.4-0.2-0.8-0.5-0.9
				C-511.3,216.9-512.2,214.8-512.2,212z M-529.5,212.2c2.2-0.4,3.6,0.1,5,0.8c3.7,1.8,8.8,0.9,11.4-2c1.3-1.4,1.2-3.5-0.2-4.1
				c-3-1.2-6.1-1.8-9.3-1.2c-2,0.4-4,1.1-5.1,3.3c2.8-0.3,5.5,1.5,8-0.6c-1.1,2-2.7,2.6-4.7,2C-526.2,209.8-527.8,210.1-529.5,212.2
				z M-508,212.6c-0.1-1.2,0.2-2.7-0.3-4.1c-0.3-0.8-1.1-1.2-1.9-1.4c-0.3-0.1-0.5,0-0.7,0.3c-0.4,0.8,0.1,7.2,0.8,7.9
				c0.5,0.6,1.1,1.3,1.8,1c0.8-0.3,0.3-1.2,0.3-1.8C-508,214-508,213.4-508,212.6z M-528.8,220.2c-1.7,1.4-1.7,1.7,0,3.1
				C-528.7,222.2-528.6,221.2-528.8,220.2z M-506.4,223.3c1.7-1.5,1.7-1.9,0-3.1C-506.4,221.2-506.4,222.2-506.4,223.3z"/>
			<path class="st61" d="M-524.2,226.1c4.4,3.2,8.8,3.1,13.3-0.5c-1.1,2.6-3.4,3.9-6.7,3.9C-520.2,229.4-522.7,228.8-524.2,226.1z"
				/>
			<path class="st62" d="M-523.3,221.2c-0.5-0.4-1.6,1.1-1.7-0.3c-0.1-0.7,0.9-0.8,1.6-0.8c0.6,0,1.4,0.2,1.4,0.8
				C-522,222-522.8,221.3-523.3,221.2z"/>
			<path class="st62" d="M-511.8,221.2c-0.5,0.1-1.3,0.8-1.4-0.2c-0.1-0.8,0.8-0.9,1.5-0.9c0.6,0,1.6,0.1,1.5,0.9
				C-510.4,222.2-511.3,221-511.8,221.2z"/>
		</g>
	</g>
	<g>
		<g>
			<path class="st63" d="M-537.4,227.2c0.1,1.3,0.1,2.6,0.7,3.7c1,1.7,0.3,2.2-1.3,2.3c-0.4,0-0.9-0.2-1.1,0.4c-1.8,0-3.6,0-5.4,0
				c-4.1-2.9-8.2-1.6-12.2,0c-1.7,0-3.3,0-5,0c-0.8-0.4-1.7-0.8-2.4-1.2c2-3.2,1.8-6.5,1-9.9c-0.2-1-0.6-1.8,0-2.8
				c0.7-1.4,0.3-2.8,0.3-4.2c0-4.8,1-6.4,5.4-8c0.8-0.3,1.2-0.9,1.8-1.3c5.5-3.5,14.9-1.3,18.2,6.1c0.4,0.8,0.3,1.9,0.3,2.9
				c0.1,1.8-0.3,3.6,0.6,5.3c0.5,1-0.2,1.9-0.8,2.7C-538.6,224.3-538.6,225.9-537.4,227.2z M-540.9,219.9c-1.4-0.7-2.8-0.5-4.1,0.1
				c-2.1-0.8-4.5-1.2-6.4-2.4c-2.3-1.5-3.6-1.5-6.2-0.1c-2.5,1.4-2.3,2.8-2.4,4.9c-0.1,1.3,0.7,2.2,1.2,3.2c1.5,3.5,4.5,4.9,8,5.2
				c3.9,0.4,7.1-1.3,9.2-4.4C-540.3,224.5-539.7,222.2-540.9,219.9z M-561.8,218.1c1.9-1.1,4.2-0.7,5.3-2.7c0.9-1.8,1.8-1.4,3.1-0.4
				c3.5,2.6,7.5,3.7,11.8,3.7c0.5,0,1.1,0.1,1.2-0.7c0.3-2,1.1,0.1,1.7-0.2c0.2-5.2-0.4-7.3-2.4-9.1c-3.6-3.4-9.8-3.9-14.1-1.2
				c-0.6,0.4-1.3,0.7-2,1c-3.4,1.1-4.4,2.3-4.5,5.8C-561.8,215.5-561.8,216.7-561.8,218.1z M-561.4,224.1c-0.1,1.6-0.4,3.2-0.2,4.8
				c0.1,1.1-1.6,2.3-0.1,3.1c1,0.5,2.3,0.3,3.5,0.3c1.4,0,2.7-0.2,4.4-1C-557.6,229.9-559.9,227.4-561.4,224.1z M-546.2,231.4
				c2.6,0.9,4.8,1.1,7.1,0.7c0.6-0.1,1.2-0.1,0.9-0.9c-0.9-2.3-0.4-4.8-1.1-7.3C-540.1,227.8-542.9,229.6-546.2,231.4z
				 M-561.5,222.6c0.3-1.2,0.4-2.1,0-3.2C-562.5,220.5-562.6,221.3-561.5,222.6z M-538.9,222.6c0.8-1.2,1.2-2.1-0.3-3.1
				C-539.2,220.5-539.4,221.4-538.9,222.6z"/>
			<path class="st64" d="M-537.4,227.2c-1.2-1.3-1.2-2.9,0-4.1C-537.4,224.5-537.4,225.8-537.4,227.2z"/>
			<path class="st65" d="M-540.9,219.9c-0.6,0.5-2.3-0.9-2.1,1.2c0,0.3-1.9,0.4-2.6,0c-0.7-0.4,0.2-0.9,0.6-1.2
				C-543.7,219.4-542.3,219.2-540.9,219.9z"/>
			<path class="st66" d="M-550.3,228.3c-0.6-0.1-1.2-0.1-1.7-0.3c-0.5-0.2-1.4-0.5-1.1-1.2c0.4-1,1-0.1,1.4,0.1
				c1.1,0.4,2.2,0.5,3.2-0.2c0.3-0.2,0.8-0.7,1.1-0.1c0.3,0.5-0.2,0.8-0.6,1C-548.6,228.2-549.5,228.2-550.3,228.3z"/>
			<path class="st27" d="M-555.8,221.2c-0.7-0.2-1.7,0.7-1.8-0.4c0-0.8,1-0.9,1.7-0.9c0.7,0,1.6,0.1,1.6,0.8
				C-554.3,222.1-555.4,220.7-555.8,221.2z"/>
		</g>
	</g>
	<g>
		<g>
			<path class="st67" d="M-344.8,61.6c1-2,1-4.5,2.3-6.4c0.2,0.7-0.2,1.5,0.6,2.1c-1,4.4-0.8,8.9,0,13.3c0,0.7-0.2,1.4-0.5,2
				c-1.3-2.1-1.4-4.6-2.4-6.7C-344.8,64.4-344.8,63-344.8,61.6z"/>
			<path class="st68" d="M-325.7,44.3c1.1-0.7,2.3-0.2,3.4-0.4c0.8-0.1,1.7,0.4,2.4-0.5c4.1,0,8.3,0,12.4,0
				c-0.2,0.3-0.4,0.6-0.6,0.9C-314,44.3-319.8,44.3-325.7,44.3z"/>
			<path class="st69" d="M-308.1,44.3c0.2-0.3,0.4-0.6,0.6-0.9c4.6,0,9.2,0,13.8,0c0.3,0.3,0.6,0.6,1,0.9
				C-297.9,44.4-303,44.3-308.1,44.3z"/>
			<path class="st70" d="M-292.7,44.4c-0.3-0.3-0.6-0.6-1-0.9c0.5,0,1,0,1.4,0c0.6,0.8,1.5,0.5,2.2,0.5c4.4,0,8.7,0,13.1,0
				c0.2,0.1,0.4,0.3,0.5,0.4c-5.3,0.1-10.6,0.1-15.8,0.2C-292.4,44.4-292.6,44.4-292.7,44.4z"/>
			<path class="st71" d="M-277,43.9c-4.4,0-8.7,0-13.1,0c-0.8,0-1.6,0.3-2.2-0.5c5.1,0,10.2,0,15.3,0C-277,43.6-277,43.8-277,43.9z"
				/>
			<path class="st72" d="M-237.8,85.4c-9.1,0.4-18.1-0.9-27.1-0.8c-3.3,0-6.7-0.1-10-0.1c-6.4-0.1-12.8-0.2-19.3-0.5
				c-12-0.6-24-0.3-36-0.3c-0.9,0-1.9,0.2-2.7-0.5c0.2-0.1,0.5-0.1,0.7-0.2c11.7,0,23.5,0.1,35.2,0.1c3.8,0,7.6,0,11.4,0
				c0-0.2,0-0.4,0-0.5c-4,0-7.9,0-11.9,0c0-0.1,0-0.3,0-0.4c0.5,0,0.9-0.1,1.4-0.1c7.6,0.3,15.2,0,22.8,0.6
				c5.7,0.4,11.5,0.6,17.3,0.5c0,0.1,0,0.2,0,0.3c-3,0-6,0.1-9.1,0.1c-2.9,0-5.8,0-8.6,0c0,0.1,0,0.3,0,0.4c2.9,0,5.8,0,8.7,0
				c3,0,6,0.1,9.1,0.1c3-0.3,6,0.6,9-0.5c2.7,0.8,5.4,0.5,8.1,0c6.5,0.6,13,0.7,19.6,0.3c0,0.2,0.1,0.4,0.1,0.7c-3.3,0-6.7,0-10,0
				c-2.3,0-4.7-0.1-7-0.1C-236.9,84.5-237.7,84.3-237.8,85.4z"/>
			<path class="st73" d="M-332.3,83c-0.2,0.1-0.5,0.1-0.7,0.2c-4.8-2-7.7-5.7-9.5-10.5c0.3-0.6,0.6-1.3,0.5-2c1,1.6,1.5,3.5,2.6,4.9
				c2.6,3.7,5.6,6.7,10.9,6.6c10.3-0.2,20.6,0,30.9,0c0,0.1,0,0.3,0,0.4c-10.8,0-21.5,0-32.3,0.1C-330.6,82.6-331.5,82.2-332.3,83z"
				/>
			<path class="st74" d="M-219.2,84.5c0-0.2-0.1-0.4-0.1-0.7c0.9-1,2.2-1,3.2-1.8c3.8-3.1,6.3-6.8,7.6-11.5c1.1-3.6,1.2-7-0.2-10.4
				c1.5,0.2,1.3,1.3,1.4,2.3c0.3,2.6-0.7,5.3,0.5,7.8c-0.6,4.3-2.9,7.8-5.7,11c-1.6,0.1-2.2,1.7-3.5,2.3c-0.8,0.7-1.6,1.5-2.8,1.5
				C-218.9,84.8-219.1,84.7-219.2,84.5z"/>
			<path class="st75" d="M-206.8,70.2c-1.2-2.5-0.3-5.2-0.5-7.8c-0.1-1,0.1-2.1-1.4-2.3c-1.6-5.4-5.9-8.2-10.6-10.4
				c0.6-0.8,1.3-0.8,2-0.3c0.7,0.6,1.5,0.6,2.4,0.6c3.6,2.4,6.7,5.3,7.9,9.5C-206,63.1-206.1,66.7-206.8,70.2z"/>
			<path class="st76" d="M-267,44.5c4.3-0.1,8.6-0.2,12.9,0.4c-1.5,0-3.1,0-4.6,0c1.7,0.8,3.5,0,5.1,1c0.8,0.8,1.8,0.4,2.6,0.5
				c2.1,0.3,4.3-0.4,6.4,0.4c-2.6,0-5.2,0.2-7.8,0c-2.7-0.2-5.4,0.4-8-0.6c-2.2-0.8-4.4-0.2-6.6-0.3c-0.6,0-1.3-0.1-1.9-0.1
				c0-0.1,0-0.2,0-0.3c0.6,0,1.3-0.1,1.9-0.1c2.2,0,4.4,0,6.6,0c0-0.1,0-0.2,0-0.4c-2.2,0-4.4,0-6.6,0l0,0
				C-267,44.8-267,44.6-267,44.5z"/>
			<path class="st76" d="M-244.5,45.5c5.2-0.4,10.3,0.8,15.4,1c-0.1,0.1-0.1,0.2-0.1,0.3c-1.7,0-3.5,0-5.2,0c0.5,0.7,1.4,0.3,1.8,1
				c-3.7,0.3-7.4-0.3-11-0.9c1.1-0.3,2.4,0.3,3.4-1c-1.4,0-2.9,0-4.3,0C-244.5,45.7-244.5,45.6-244.5,45.5z"/>
			<path class="st77" d="M-267,44.5c0,0.1,0,0.3,0,0.4c-3.3,0-6.6,0-10,0c-5.1,0-10.2,0-15.3,0c0-0.1,0-0.3,0-0.4
				c5.3-0.1,10.6-0.1,15.8-0.2C-273.3,44.4-270.1,44.4-267,44.5z"/>
			<path class="st78" d="M-215,50.1c-0.9,0-1.6-0.1-2.4-0.6c-0.7-0.5-1.4-0.6-2,0.3c-1.6-0.8-3.5-0.7-5.2-1c-0.2-2,1.4-0.5,2-1
				C-219.7,47.5-217.3,48.9-215,50.1z"/>
			<path class="st79" d="M-219.2,84.5c0.2,0.2,0.3,0.3,0.5,0.5c-3.5,1-7,0.3-10.5,0.4c0-0.3,0-0.5,0-0.8
				C-225.9,84.6-222.5,84.5-219.2,84.5z"/>
			<path class="st77" d="M-244.5,45.5c0,0.1,0,0.2,0,0.3c-3,0-6.1,0-9.1,0c-1.6-0.9-3.4-0.2-5.1-1c1.5,0,3.1,0,4.6,0
				C-250.9,45.1-247.7,45.3-244.5,45.5z"/>
			<path class="st80" d="M-229.2,84.6c0,0.3,0,0.5,0,0.8c-2.9,0-5.7,0-8.6,0c0.1-1.1,0.9-0.9,1.6-0.9
				C-233.9,84.5-231.6,84.5-229.2,84.6z"/>
			<path class="st76" d="M-222.5,47.7c-0.5,0.6-2.2-1-2,1c-1.8,0-3.6-0.5-5.4-0.9c0.8-0.1,1.6-0.1,3-0.2c-1-0.4-1.6-0.2-1.9-0.8
				c1.4,0,2.7,0,4.1-0.1C-224.3,47.7-223.1,47-222.5,47.7z"/>
			<path class="st81" d="M-215.9,83.5c1.2-0.7,1.8-2.3,3.5-2.3C-213.5,82.1-214.2,83.6-215.9,83.5z"/>
			<path class="st82" d="M-224.7,46.7c-1.4,0-2.7,0-4.1,0.1c-0.1-0.1-0.3-0.1-0.4-0.1c0-0.1,0-0.2,0.1-0.3
				C-227.6,46.3-226.1,46.1-224.7,46.7z"/>
			<path class="st83" d="M-292.3,44.5c0,0.1,0,0.3,0,0.4c0,0.1,0,0.3,0,0.4c-2.5-0.6-5-0.5-7.6-0.4c-7.6,0.3-15.2,0.6-22.8,0.5
				c-0.4,0-0.7,0.2-1.1,0.3c-2.7,0.3-5.4,0.7-8.2,1c0.3-0.7,0.3-1.1-0.6-0.8c-0.8,0.2-1.5,0.9-2.4,0.8c2.7-2.4,5.9-2.3,9.2-2.4
				c5.9,0,11.7,0,17.6,0c5.1,0,10.3,0,15.4,0.1C-292.6,44.4-292.4,44.4-292.3,44.5z"/>
			<path class="st84" d="M-334.9,46.7c0.9,0.2,1.6-0.5,2.4-0.8c0.9-0.3,0.9,0.2,0.6,0.8c-4.6,2.3-7.9,5.8-10,10.5
				c-0.8-0.5-0.4-1.4-0.6-2.1C-341.1,51.4-338.2,48.8-334.9,46.7z"/>
			<path class="st82" d="M-341.9,57.3c2.1-4.7,5.4-8.2,10-10.5c2.7-0.3,5.4-0.7,8.1-1c1.4,0,2.8,0.1,4.3,0.1
				c5.1,0,10.1-0.2,15.2-0.2c11.8,0,23.6,0.1,35.4,0.1c0.6,0,1.3,0.1,1.9,0.1c2.2,0.8,4.4,0.3,6.6,0.3c2.6,1,5.3,0.4,8,0.6
				c2.6,0.2,5.2,0,7.8,0c0.3,0,0.6,0,0.9,0.1c3.6,0.6,7.3,1.2,11,0.9c0.9,0,1.8,0.1,2.8,0.1c1.8,0.5,3.5,1,5.4,0.9
				c1.7,0.4,3.6,0.2,5.2,1c4.8,2.2,9,5,10.6,10.4c1.4,3.4,1.3,6.8,0.2,10.4c-1.4,4.8-3.9,8.5-7.6,11.5c-1,0.8-2.4,0.8-3.2,1.8
				c-6.5,0.4-13,0.2-19.6-0.3c-0.3-0.4-0.7-0.4-1.1-0.4c-5.3,0-10.7,0-16-0.1c-5.8,0.1-11.6-0.1-17.3-0.5
				c-7.6-0.6-15.2-0.3-22.8-0.6c-0.5,0-0.9,0.1-1.4,0.1c-10.3,0-20.6-0.3-30.9,0c-5.3,0.1-8.2-2.9-10.9-6.6c-1-1.5-1.6-3.3-2.6-4.9
				C-342.6,66.1-342.9,61.7-341.9,57.3z M-332.8,77.8c1,1.9,2.9,1.4,4.5,1.4c15.9-0.1,31.8,0.2,47.6,0.8c13.3,0.5,26.7,0.1,40,1
				c5.9,0.4,11.8,0.1,17.7,0.1c2,0,3.8-0.2,5.3-1.5c4.4-3,7.1-7.2,8-12.3c1.2-7.2-4.4-13.3-11.3-15.3c-5.1-1.5-10.5-1.3-15.8-1.9
				c-6.3-0.7-12.7-0.5-19-1c-10-0.9-20-0.5-30-0.8c-13.3-0.4-26.7-0.2-40,0.4c-4.9,0.2-8.6,2.7-11.7,6.2c-1.2,0.3-1.6,1.1-1.5,2.3
				c-2.7,6.2-1.5,12,2.3,17.3C-335.8,75.9-334.7,77.3-332.8,77.8z"/>
			<path class="st85" d="M-332.3,83c0.7-0.7,1.7-0.4,2.5-0.4c10.8,0,21.5,0,32.3-0.1c4,0,7.9,0,11.9,0c0,0.2,0,0.4,0,0.5
				c-3.8,0-7.6,0-11.4,0C-308.8,83-320.5,83-332.3,83z"/>
			<path class="st86" d="M-256,83.1c5.3,0,10.7,0,16,0.1c0.4,0,0.8,0,1.1,0.4c-2.7,0.5-5.4,0.9-8.1,0c-3,0-6,0-9,0l0-0.1
				C-256,83.3-256,83.2-256,83.1z"/>
			<path class="st87" d="M-256,84c-3,0-6-0.1-9.1-0.1c0-0.1,0-0.3,0-0.4c3,0,6-0.1,9.1-0.1l0,0.1C-256,83.7-256,83.9-256,84z"/>
			<path class="st88" d="M-256,84c0-0.2,0-0.3,0-0.5c3,0,6,0,9,0C-250,84.6-253,83.8-256,84z"/>
			<path class="st89" d="M-265.1,83.5c0,0.1,0,0.3,0,0.4c-2.9,0-5.8,0-8.7,0c0-0.1,0-0.3,0-0.4C-270.8,83.5-267.9,83.5-265.1,83.5z"
				/>
			<path class="st69" d="M-268.9,45.7c-11.8,0-23.6-0.1-35.4-0.1c-5.1,0-10.1,0.1-15.2,0.2c-1.4,0-2.8-0.1-4.3-0.1
				c0.4-0.1,0.7-0.3,1.1-0.3c7.6,0.1,15.2-0.3,22.8-0.5c2.5-0.1,5.1-0.2,7.6,0.4c5.1,0,10.2,0,15.3,0c2.7,0,5.4,0.1,8.1,0.1
				C-268.9,45.5-268.9,45.6-268.9,45.7z"/>
			<path class="st90" d="M-243.6,46.8c-0.3,0-0.6,0-0.9-0.1c-2.1-0.9-4.3-0.2-6.4-0.4c-0.9-0.1-1.9,0.4-2.6-0.5c3,0,6.1,0,9.1,0
				c1.4,0,2.9,0,4.3,0C-241.2,47.1-242.5,46.5-243.6,46.8z"/>
			<path class="st91" d="M-268.9,45.4c-2.7,0-5.4-0.1-8.1-0.1c0-0.1,0-0.2,0-0.4c3.3,0,6.6,0,10,0l0,0c0,0.1,0,0.2,0,0.4
				C-267.6,45.3-268.3,45.4-268.9,45.4z"/>
			<path class="st92" d="M-267,45.3c0-0.1,0-0.2,0-0.4c2.2,0,4.4,0,6.6,0c0,0.1,0,0.2,0,0.4C-262.6,45.3-264.8,45.3-267,45.3z"/>
			<path class="st69" d="M-260.3,46.1c-2.2,0-4.5,0.5-6.6-0.3C-264.7,45.9-262.5,45.4-260.3,46.1z"/>
			<path class="st93" d="M-229.8,47.8c-0.9,0-1.8-0.1-2.8-0.1c-0.4-0.7-1.3-0.3-1.8-1c1.7,0,3.5,0,5.2,0c0.1,0,0.3,0,0.4,0.1
				c0.3,0.5,0.9,0.4,1.9,0.8C-228.2,47.7-229,47.7-229.8,47.8z"/>
			<path class="st94" d="M-277,44.9c0,0.1,0,0.2,0,0.4c-5.1,0-10.2,0-15.3,0c0-0.1-0.1-0.3,0-0.4C-287.2,44.9-282.1,44.9-277,44.9z"
				/>
			<path class="st95" d="M-337.6,54.9c-0.4,0.8-0.1,2.1-1.5,2.3C-339.2,56.1-338.8,55.3-337.6,54.9z"/>
			<path class="st96" d="M-222.1,78.8c-4,0.6-8.1,0.7-12.1,0.4c-9.6-0.6-19.2,0-28.8-0.5c-7.4-0.4-14.7-0.3-22.1-0.4l0,0
				c-0.7-0.7-1.5-0.4-2.3-0.4c-11.3,0-22.6,0-33.9,0c-2.6,0-5.2,0.2-7.8-0.5c-3.7-1.6-6.1-4.6-7.7-8.2c-2.9-6.5,0.8-13.5,7.6-16.2
				c2.5-1,5.2-1.4,7.9-1.4c18.7,0,37.4-0.3,56,0.1c12,0.2,23.9,0.5,35.9,1.8c4.9,0.5,9.7,1.5,13.3,5.3c3.4,3.6,3.5,10.2,0.6,14.4
				C-217.3,75.7-219.6,77.2-222.1,78.8z"/>
		</g>
	</g>
	<g>
		<g>
			<path class="st97" d="M-356,222c0-13.9,0-27.8,0-41.8c2.3-4,5.1-6.9,10.3-6.9c42.2,0.1,84.5,0,126.7,0c6.1,0,10,4,10.1,10.1
				c0,11.4,0,22.8,0,34.3c0,7.4-3.6,11.1-11,11.1c-41.1,0-82.2-0.1-123.3,0.1C-349.2,229-353.4,227.3-356,222z M-282.6,227.6
				c20.9,0,41.7,0,62.6,0c6.5,0,9.8-3.2,9.8-9.7c0-11.1,0-22.2,0-33.3c0-6.7-3.3-9.9-10-9.9c-41.5,0-83.1,0-124.6,0
				c-6.7,0-10,3.3-10,9.9c0,11,0,22,0,33c0,6.9,3.2,10,10.2,10C-324,227.6-303.3,227.6-282.6,227.6z"/>
			<path class="st98" d="M-282.6,227.6c-20.7,0-41.3,0-62,0c-6.9,0-10.1-3.2-10.2-10c0-11,0-22,0-33c0-6.6,3.3-9.9,10-9.9
				c41.5,0,83.1,0,124.6,0c6.7,0,10,3.2,10,9.9c0,11.1,0,22.2,0,33.3c0,6.5-3.3,9.7-9.8,9.7C-240.9,227.6-261.8,227.6-282.6,227.6z
				 M-282.3,224.5c20.5,0,40.9,0,61.4,0c5.9,0,8.2-2.4,8.2-8.3c0-10.4,0-20.8,0-31.1c0-5.3-2.5-7.9-7.8-7.9c-41.1,0-82.2,0-123.4,0
				c-5.2,0-7.8,2.6-7.8,7.9c0,10.4,0,20.8,0,31.1c0,5.9,2.4,8.3,8.3,8.3C-323,224.5-302.7,224.5-282.3,224.5z"/>
			<path class="st96" d="M-282.8,180.9c18.9,0,37.8,0,56.7,0c5.9,0,8.4,2.6,8.4,8.6c0,7.9,0,15.8,0,23.7c0,5.6-2.6,8.3-8.1,8.3
				c-38,0-76,0-114,0c-5.5,0-8.1-2.7-8.1-8.2c0-8,0-16,0-24c0-5.7,2.7-8.3,8.4-8.3C-320.6,180.9-301.7,180.9-282.8,180.9z"/>
		</g>
	</g>
	<g>
		<g>
			<g>
				<g>
					<path class="st99" d="M-427.6-33.9c-1,0.3-1.9,0.3-2.8,0.3c-0.9-0.1-1.7-0.3-2.5-0.6c-0.8-0.3-1.5-0.7-2.2-1.2
						c-0.7-0.5-1.4-1.2-1.9-2.1c1-0.3,1.9-0.3,2.8-0.3c0.9,0.1,1.7,0.3,2.5,0.6c0.8,0.3,1.5,0.7,2.2,1.2
						C-428.8-35.5-428.2-34.8-427.6-33.9z"/>
				</g>
				<g>
					<path class="st99" d="M-417.2-42.1c-1.1,0.2-2,0.1-2.9-0.1c-0.9-0.2-1.7-0.5-2.4-0.9c-0.7-0.4-1.4-0.9-2.1-1.6
						c-0.6-0.6-1.2-1.4-1.6-2.4c1.1-0.2,2-0.1,2.9,0.1c0.9,0.2,1.7,0.5,2.4,0.9c0.7,0.4,1.4,0.9,2.1,1.6
						C-418.2-43.8-417.7-43.1-417.2-42.1z"/>
				</g>
				<g>
					<path class="st99" d="M-404.3-51.2c-1.1,0.1-2,0-2.8-0.3c-0.8-0.3-1.6-0.6-2.4-1.1c-0.7-0.4-1.4-1-2-1.6
						c-0.6-0.7-1.1-1.4-1.5-2.4c1.1-0.1,2,0,2.8,0.3c0.8,0.3,1.6,0.6,2.3,1.1c0.7,0.5,1.4,1,2,1.7C-405.2-53-404.7-52.2-404.3-51.2z
						"/>
				</g>
				<g>
					<path class="st99" d="M-391-57.2c-1.1-0.1-2-0.5-2.8-0.9c-0.8-0.4-1.5-1-2.2-1.6c-0.7-0.6-1.2-1.3-1.7-2.1
						c-0.5-0.8-0.9-1.7-1.1-2.8c1.1,0.1,2,0.5,2.8,0.9c0.8,0.4,1.5,1,2.2,1.6c0.6,0.6,1.2,1.3,1.7,2.1
						C-391.6-59.2-391.2-58.3-391-57.2z"/>
				</g>
				<g>
					<path class="st99" d="M-374.5-62.7c-1.1-0.4-1.9-0.9-2.7-1.5c-0.7-0.6-1.4-1.3-1.9-2.1c-0.5-0.8-1-1.6-1.3-2.5
						c-0.3-0.9-0.6-1.9-0.6-3c1.1,0.4,1.9,0.9,2.7,1.5c0.7,0.6,1.4,1.3,1.9,2.1c0.5,0.8,1,1.6,1.3,2.5
						C-374.7-64.8-374.5-63.8-374.5-62.7z"/>
				</g>
				<g>
					<path class="st99" d="M-357.1-65.9c-0.9-0.7-1.4-1.6-1.9-2.4c-0.4-0.8-0.8-1.7-1-2.6c-0.2-0.9-0.3-1.8-0.3-2.8
						c0-1,0.1-1.9,0.6-3c0.9,0.7,1.4,1.6,1.9,2.4c0.4,0.8,0.8,1.7,1,2.6c0.2,0.9,0.3,1.8,0.3,2.8C-356.6-67.9-356.7-66.9-357.1-65.9
						z"/>
				</g>
				<g>
					<path class="st99" d="M-340.6-67.1c-0.7-0.9-1-1.8-1.3-2.7c-0.2-0.9-0.3-1.8-0.3-2.7c0-0.9,0.1-1.8,0.3-2.7
						c0.2-0.9,0.6-1.8,1.3-2.7c0.7,0.9,1,1.8,1.3,2.7c0.2,0.9,0.3,1.8,0.3,2.7c0,0.9-0.1,1.8-0.3,2.7
						C-339.6-68.9-339.9-68-340.6-67.1z"/>
				</g>
				<g>
					<path class="st99" d="M-324.1-66c-0.5-1-0.6-1.9-0.6-2.7c0-0.9,0.1-1.7,0.2-2.5c0.2-0.8,0.5-1.6,0.9-2.4c0.4-0.8,1-1.5,1.8-2.1
						c0.5,1,0.6,1.9,0.6,2.7c0,0.9-0.1,1.7-0.2,2.5c-0.2,0.8-0.5,1.6-0.9,2.4C-322.7-67.4-323.3-66.6-324.1-66z"/>
				</g>
				<g>
					<path class="st99" d="M-306.1-62.3c-0.2-1-0.1-1.9,0-2.7c0.2-0.8,0.4-1.6,0.8-2.3c0.4-0.7,0.8-1.4,1.4-1.9
						c0.6-0.6,1.3-1.1,2.2-1.5c0.2,1,0.2,1.9,0,2.7c-0.2,0.8-0.4,1.6-0.8,2.3c-0.4,0.7-0.8,1.3-1.4,1.9
						C-304.5-63.3-305.1-62.7-306.1-62.3z"/>
				</g>
				<g>
					<path class="st99" d="M-292.5-57.3c0.2-1.1,0.6-1.9,1.1-2.6c0.5-0.7,1.1-1.4,1.7-1.9c0.6-0.6,1.4-1,2.2-1.4
						c0.8-0.4,1.7-0.7,2.8-0.7c-0.2,1.1-0.6,1.9-1.1,2.6c-0.5,0.7-1.1,1.4-1.7,1.9c-0.6,0.6-1.4,1-2.2,1.4
						C-290.6-57.6-291.4-57.3-292.5-57.3z"/>
				</g>
				<g>
					<path class="st99" d="M-277.6-50.7c0.2-1,0.6-1.7,1.1-2.4c0.5-0.6,1-1.2,1.6-1.6c0.6-0.5,1.3-0.8,2-1.1
						c0.8-0.3,1.6-0.4,2.6-0.3c-0.2,1-0.6,1.7-1.1,2.4c-0.5,0.6-1,1.2-1.6,1.6c-0.6,0.4-1.3,0.8-2,1.1
						C-275.8-50.8-276.6-50.7-277.6-50.7z"/>
				</g>
				<g>
					<path class="st99" d="M-266.1-43.1c0.5-1,1.1-1.6,1.7-2.2c0.6-0.6,1.3-1,2.1-1.4c0.7-0.4,1.5-0.6,2.4-0.8
						c0.9-0.1,1.8-0.2,2.8,0.1c-0.5,1-1.1,1.6-1.7,2.2c-0.6,0.6-1.3,1-2.1,1.4c-0.7,0.4-1.5,0.6-2.4,0.7
						C-264.2-42.9-265.1-42.9-266.1-43.1z"/>
				</g>
				<g>
					<path class="st99" d="M-254.6-33.5c0.5-1,1.2-1.6,1.9-2.2c0.7-0.6,1.5-1,2.3-1.4c0.8-0.4,1.6-0.6,2.5-0.8
						c0.9-0.1,1.8-0.2,2.9,0.1c-0.5,1-1.2,1.7-1.9,2.2c-0.7,0.6-1.5,1-2.3,1.4c-0.8,0.4-1.7,0.6-2.6,0.8
						C-252.6-33.3-253.6-33.3-254.6-33.5z"/>
				</g>
			</g>
			<g>
				<path class="st99" d="M-423.6-26.3l4-4.2c1.4-1.4,2.8-2.7,4.2-4c2.9-2.6,5.8-5.1,8.9-7.4c6.3-4.6,13-8.6,20-12
					c0.9-0.4,1.8-0.9,2.7-1.3l2.7-1.1c0.9-0.4,1.8-0.8,2.7-1.1l2.8-1c0.9-0.3,1.8-0.7,2.8-0.9l2.8-0.8c1.9-0.6,3.8-1,5.7-1.5
					c7.7-1.7,15.6-2.5,23.4-2.5c7.9,0.1,15.8,1,23.4,2.7c7.6,1.8,15.1,4.4,22.2,7.8c7,3.4,13.7,7.5,20,12.1c1.5,1.2,3.1,2.4,4.5,3.7
					c1.5,1.3,2.9,2.5,4.4,3.8c1.4,1.3,2.8,2.7,4.2,4l3.9,4.2l-0.2,0.2c-11-10.7-23.7-19.7-37.8-25.9c-14-6.2-29.3-9.7-44.6-9.7
					c-15.3-0.1-30.6,3.1-44.7,9.3c-14.1,6.1-26.8,15-37.9,25.7L-423.6-26.3z"/>
			</g>
			<g>
				<path class="st99" d="M-389.9-41c7-5.1,14.9-8.9,23.2-11.6c4.2-1.3,8.4-2.3,12.8-3c4.3-0.7,8.7-1,13.1-1.1
					c4.4,0,8.8,0.3,13.1,0.9c4.3,0.7,8.6,1.5,12.8,2.9c8.4,2.6,16.3,6.5,23,12l-0.2,0.3c-7.3-4.4-15.2-7.7-23.5-9.9
					c-8.2-2.1-16.8-3.1-25.3-3c-17,0.1-34,4.7-48.9,12.9L-389.9-41z"/>
			</g>
		</g>
	</g>
	<g>
		<g>
			<g>
				<path class="st96" d="M-344.5,134.2c0-1.9,0-3.8,0-5.6c3-6,7.9-9.4,14.6-9.5c26.2-0.5,52.5-0.3,78.7,0.8
					c5.9,0.2,11.8,0.6,17.6,1.6c8.1,1.4,12.4,5.1,12.1,11.9c-0.2,7.1-5.6,12.3-13.1,12.3c-31.3,0.1-62.6-1.7-94-0.9
					C-335.6,144.9-341.6,141.7-344.5,134.2z"/>
			</g>
		</g>
	</g>
	<g>
		<path class="st100" d="M-398.8,93.9c0,8.7-12.6,22.8-16.1,27.3c-3.5-3.9-17-18.6-17-27.3s7.4-15.7,16.6-15.7
			C-406.2,78.2-398.8,85.2-398.8,93.9z"/>
		<ellipse class="st100" cx="-415.4" cy="93.7" rx="9.7" ry="9.3"/>
	</g>
</g>
<g id="Layer_2">
	<g>
		<g>
			<g>
				<g>
					<g>
						<path class="st99" d="M8.4,36.3c-0.8,0.2-1.5,0.3-2.2,0.2c-0.7-0.1-1.3-0.2-1.9-0.4c-0.6-0.2-1.2-0.5-1.8-0.9
							C2,34.8,1.5,34.3,1,33.6c0.8-0.3,1.5-0.3,2.2-0.2c0.7,0.1,1.3,0.2,1.9,0.4c0.6,0.2,1.2,0.5,1.8,0.9C7.5,35.1,8,35.6,8.4,36.3z
							"/>
					</g>
					<g>
						<path class="st99" d="M16.5,30.3c-0.8,0.1-1.5,0.1-2.2-0.1c-0.7-0.1-1.3-0.4-1.9-0.7c-0.6-0.3-1.1-0.7-1.6-1.2
							c-0.5-0.5-1-1-1.3-1.8c0.8-0.1,1.5-0.1,2.2,0.1c0.7,0.1,1.3,0.4,1.9,0.7c0.6,0.3,1.1,0.7,1.6,1.2C15.7,29,16.2,29.5,16.5,30.3
							z"/>
					</g>
					<g>
						<path class="st99" d="M26.6,23.5c-0.8,0.1-1.5,0-2.2-0.2c-0.7-0.2-1.3-0.4-1.8-0.8c-0.6-0.3-1.1-0.7-1.6-1.2
							c-0.5-0.5-0.9-1.1-1.2-1.8c0.8-0.1,1.5,0,2.2,0.2c0.7,0.2,1.3,0.4,1.8,0.8c0.6,0.3,1.1,0.7,1.6,1.2
							C25.9,22.2,26.3,22.8,26.6,23.5z"/>
					</g>
					<g>
						<path class="st99" d="M37,19.1c-0.8-0.1-1.5-0.3-2.2-0.7c-0.6-0.3-1.2-0.7-1.7-1.2c-0.5-0.5-1-1-1.3-1.6
							c-0.4-0.6-0.7-1.2-0.9-2.1c0.8,0.1,1.5,0.3,2.2,0.7c0.6,0.3,1.2,0.7,1.7,1.2c0.5,0.5,1,1,1.3,1.6C36.5,17.6,36.8,18.3,37,19.1
							z"/>
					</g>
					<g>
						<path class="st99" d="M49.9,15c-0.8-0.3-1.5-0.7-2-1.1c-0.6-0.5-1.1-1-1.5-1.5c-0.4-0.6-0.8-1.2-1.1-1.8
							c-0.3-0.7-0.5-1.4-0.5-2.3c0.8,0.3,1.5,0.7,2,1.1c0.6,0.5,1.1,1,1.5,1.5c0.4,0.6,0.8,1.2,1.1,1.8C49.7,13.4,49.9,14.2,49.9,15
							z"/>
					</g>
					<g>
						<path class="st99" d="M63.5,12.7c-0.7-0.5-1.1-1.1-1.4-1.8c-0.3-0.6-0.6-1.3-0.8-1.9C61.1,8.3,61,7.6,61,6.9
							c0-0.7,0.1-1.4,0.4-2.2c0.7,0.5,1.1,1.1,1.4,1.7c0.3,0.6,0.6,1.3,0.8,1.9c0.2,0.7,0.3,1.3,0.2,2.1
							C63.9,11.1,63.8,11.9,63.5,12.7z"/>
					</g>
					<g>
						<path class="st99" d="M76.3,11.7c-0.5-0.7-0.8-1.3-1-2C75.1,9,75,8.3,75,7.7c0-0.7,0.1-1.3,0.3-2c0.2-0.7,0.5-1.3,1-2
							c0.5,0.7,0.8,1.3,1,2c0.2,0.7,0.3,1.3,0.3,2c0,0.7-0.1,1.3-0.3,2C77,10.3,76.8,11,76.3,11.7z"/>
					</g>
					<g>
						<path class="st99" d="M89.2,12.6c-0.3-0.7-0.4-1.4-0.5-2c0-0.6,0-1.3,0.2-1.9c0.1-0.6,0.4-1.2,0.7-1.7
							c0.3-0.6,0.7-1.1,1.4-1.6c0.3,0.7,0.4,1.4,0.5,2c0,0.6,0,1.3-0.2,1.9c-0.2,0.6-0.4,1.2-0.7,1.7C90.3,11.6,89.9,12.1,89.2,12.6
							z"/>
					</g>
					<g>
						<path class="st99" d="M103.3,15.3c-0.2-0.8-0.1-1.4,0-2c0.1-0.6,0.4-1.2,0.6-1.7c0.3-0.5,0.7-1,1.1-1.4c0.5-0.4,1-0.8,1.7-1.1
							c0.2,0.8,0.1,1.4,0,2c-0.1,0.6-0.4,1.2-0.6,1.7c-0.3,0.5-0.7,1-1.1,1.4C104.5,14.6,104,15,103.3,15.3z"/>
					</g>
					<g>
						<path class="st99" d="M113.9,19c0.2-0.8,0.5-1.4,0.9-2c0.4-0.6,0.8-1,1.3-1.4c0.5-0.4,1.1-0.8,1.7-1c0.6-0.3,1.3-0.5,2.1-0.5
							c-0.2,0.8-0.5,1.4-0.9,2c-0.4,0.6-0.8,1-1.3,1.4c-0.5,0.4-1.1,0.8-1.7,1C115.4,18.8,114.7,19,113.9,19z"/>
					</g>
					<g>
						<path class="st99" d="M125.5,23.9c0.2-0.7,0.5-1.3,0.9-1.8c0.4-0.5,0.8-0.9,1.3-1.2c0.5-0.3,1-0.6,1.6-0.8
							c0.6-0.2,1.2-0.3,2-0.2c-0.2,0.8-0.5,1.3-0.9,1.8c-0.4,0.5-0.8,0.9-1.3,1.2c-0.5,0.3-1,0.6-1.6,0.8
							C126.9,23.8,126.3,23.9,125.5,23.9z"/>
					</g>
					<g>
						<path class="st99" d="M134.5,29.5c0.4-0.7,0.9-1.2,1.4-1.7c0.5-0.4,1.1-0.8,1.6-1c0.6-0.3,1.2-0.4,1.9-0.5
							c0.7-0.1,1.4-0.1,2.1,0.1c-0.4,0.7-0.9,1.2-1.4,1.7c-0.5,0.4-1.1,0.8-1.6,1c-0.6,0.3-1.2,0.4-1.9,0.5
							C136,29.7,135.3,29.7,134.5,29.5z"/>
					</g>
					<g>
						<path class="st99" d="M143.4,36.6c0.4-0.7,1-1.2,1.5-1.7c0.6-0.4,1.1-0.8,1.8-1c0.6-0.3,1.3-0.5,2-0.6
							c0.7-0.1,1.4-0.1,2.3,0.1c-0.4,0.7-0.9,1.2-1.5,1.7c-0.6,0.4-1.1,0.8-1.8,1c-0.6,0.3-1.3,0.5-2,0.6
							C145,36.8,144.3,36.8,143.4,36.6z"/>
					</g>
				</g>
				<g>
					<path class="st99" d="M11.6,41.9l3.2-3.2c1.1-1,2.2-2,3.3-3c2.3-1.9,4.6-3.8,7.1-5.6c4.9-3.5,10.2-6.5,15.7-8.9
						c5.5-2.5,11.3-4.3,17.3-5.6c5.9-1.2,12-1.8,18.1-1.8c6.1,0.1,12.2,0.7,18.1,2c5.9,1.3,11.7,3.2,17.2,5.7
						c5.5,2.5,10.8,5.5,15.7,9c1.2,0.9,2.4,1.8,3.6,2.7c1.2,1,2.3,1.9,3.5,2.9c1.1,1,2.2,2,3.3,3l3.1,3.2l-0.2,0.2
						c-8.7-8.1-18.7-14.7-29.7-19.2c-10.9-4.6-22.8-7-34.6-7.1c-11.8-0.1-23.7,2.3-34.7,6.8c-11,4.5-21,11.1-29.8,19.1L11.6,41.9z"
						/>
				</g>
				<g>
					<path class="st99" d="M37.9,31.1l2.1-1.4l2.2-1.3c1.5-0.8,3-1.6,4.5-2.3c1.5-0.7,3.1-1.3,4.7-2c0.8-0.4,1.6-0.6,2.4-0.8
						l2.4-0.8c3.2-1,6.6-1.7,9.9-2.2c3.4-0.5,6.8-0.8,10.2-0.8c3.4,0,6.8,0.2,10.2,0.6c3.4,0.5,6.7,1.1,10,2.1
						c0.8,0.2,1.6,0.5,2.4,0.8c0.8,0.3,1.6,0.6,2.4,0.8c1.6,0.6,3.1,1.3,4.7,2c1.5,0.8,3,1.6,4.4,2.4c1.4,0.9,2.8,1.9,4.2,2.8
						l-0.1,0.2c-11.5-6.7-24.9-9.7-38.1-9.5c-13.2,0.1-26.4,3.4-38.2,9.5L37.9,31.1z"/>
				</g>
			</g>
		</g>
		<g>
			<path class="st101" d="M18.7,59.4L18,57.9c1.5-0.5,2.7-1.1,3.5-1.8c0.8-0.7,1.3-1.7,1.5-2.8c0.3-1.2,0.1-2.2-0.5-2.9
				c-0.6-0.8-1.6-1.1-3-1.1c-1.6,0-3,0.6-4.3,1.8c-1.2,1.2-2,2.7-2.4,4.5c-0.4,1.8-0.2,3.2,0.6,4.3s2,1.7,3.7,1.9
				c2.4,0.2,5,0,7.6-0.8l-0.5,2.1c-2.6,0.7-5,1-7.3,0.8c-2.9-0.2-5.1-1-6.6-2.4s-2-3.4-1.4-6c0.6-2.6,1.8-4.7,3.9-6.2
				s4.5-2.2,7.3-2.2c2.4,0,4.2,0.5,5.5,1.4c1.3,1,1.7,2.4,1.3,4.3c-0.3,1.6-1.2,2.9-2.6,4.1C22.9,58,21,58.9,18.7,59.4z"/>
			<path class="st101" d="M36.6,52.2l-0.7,2.1c-1.4-0.1-2.5,0.3-3.4,1c-0.9,0.8-1.4,1.7-1.7,2.8c-0.2,1.1,0,1.9,0.8,2.6
				c0.7,0.7,1.9,1,3.5,1c1,0,2-0.3,2.9-0.8c0.9-0.5,1.7-1.2,2.3-2.2c0.6-0.9,1-2,1.3-3.3c0.4-1.8,0.2-3.2-0.7-4.3
				c-0.8-1.1-2.1-1.7-3.7-1.9c-2.6-0.2-5,0-7.4,0.7l0.4-2.1c2.6-0.7,5-1,7.3-0.8c2.9,0.2,5,1,6.5,2.4c1.5,1.4,2,3.4,1.4,6
				c-0.6,2.6-1.8,4.7-3.9,6.2s-4.5,2.2-7.3,2.2c-2.2,0-3.8-0.3-4.8-0.8c-1-0.5-1.8-1.2-2.3-2.1c-0.5-0.9-0.6-2-0.3-3.2
				c0.4-1.7,1.4-3.2,3.2-4.3C32.1,52.3,34.2,51.9,36.6,52.2z"/>
			<path class="st101" d="M53.6,47.3l-3.5,16.4h-3.8l3-14H48l0.3-1.8L53.6,47.3z"/>
			<path class="st101" d="M61,49.7l-3,14h-3.7l2.9-13.6c-0.5,0-0.9,0.1-1.4,0.2l0.4-2c1.9-0.5,4.2-0.8,7-0.8c0.7,0,1.4,0,2,0.1
				s1.3,0.1,2,0.3c0.7,0.1,1.3,0.3,1.9,0.5c0.6,0.2,1.1,0.5,1.7,0.8c0.5,0.3,1,0.7,1.3,1.1c0.4,0.4,0.7,0.9,0.9,1.4
				c0.3,0.5,0.4,1.1,0.4,1.8c0,0.7,0,1.4-0.2,2.3l-1.7,8h-3.7l1.6-7.4c0.1-0.9,0.2-1.7,0.1-2.4c-0.1-0.7-0.3-1.2-0.6-1.7
				c-0.4-0.5-0.8-0.9-1.2-1.2c-0.5-0.3-1-0.6-1.7-0.8c-0.6-0.2-1.3-0.3-1.9-0.4c-0.6-0.1-1.3-0.1-2-0.1H61z"/>
			<path class="st34" d="M82.3,47.2l-1.8,8.5h-3.8l1.3-6h-1.4l0.4-1.8L82.3,47.2z"/>
			<path class="st34" d="M91.3,47c3.4,0,5.8,0.7,7.4,2c1.5,1.4,2,3.5,1.4,6.4l-1.8,8.3h-3.9l1.5-7.2c0.4-1.7,0.5-3,0.3-3.8
				c-0.2-1.1-0.8-1.9-1.9-2.5c-1-0.6-2.4-0.9-4.1-0.9c-2.3,0-4.4,0.2-6.4,0.7l0.4-2.1C86.3,47.3,88.6,47,91.3,47z"/>
			<path class="st34" d="M112.8,55.1c1.6,0.2,2.9,0.8,3.8,1.5c0.9,0.8,1.2,1.9,0.9,3.3l-0.8,3.7h-3.9l0.7-3.5
				c0.3-1.4-0.1-2.3-1.1-2.9c-1-0.6-2.5-0.9-4.4-0.9l0.5-2.2c1.9-0.1,3.4-0.4,4.7-0.8c1.3-0.5,2-1.1,2.2-1.8
				c0.1-0.7-0.3-1.3-1.4-1.7c-1.1-0.4-2.7-0.6-4.7-0.6c-2.3,0-4.5,0.2-6.5,0.7l0.4-2.1c2.4-0.6,4.8-0.8,7.3-0.8
				c2.9,0,5.1,0.4,6.8,1.1s2.3,1.7,2,3c-0.2,1-0.9,1.8-2.2,2.6C116,54.5,114.5,55,112.8,55.1z"/>
			<path class="st34" d="M127.3,47.3l-0.3,1.3l8.1,10.3l2-9.2h-1.3l0.3-1.8l5.3-0.7l-3.5,16.4h-3.8l0.3-1.2l-8.1-10.3l-2.4,11.5H120
				l3-14h-1.3l0.3-1.8L127.3,47.3z"/>
		</g>
	</g>
	<g>
	</g>
	<g>
	</g>
	<g>
	</g>
	<g>
	</g>
	<g>
	</g>
	<g>
	</g>
</g>
</svg>
